<svg width="1200" height="1600" viewBox="0 0 1200 1600" xmlns="http://www.w3.org/2000/svg">
  <defs>
    <linearGradient id="bg" x1="0%" y1="0%" x2="100%" y2="100%">
      <stop offset="0%" stop-color="#001B3D"/>
      <stop offset="55%" stop-color="#00408C"/>
      <stop offset="100%" stop-color="#0071E3"/>
    </linearGradient>
    <radialGradient id="glow1" cx="50%" cy="50%" r="50%">
      <stop offset="0%" stop-color="#4DA3FF" stop-opacity="0.55"/>
      <stop offset="100%" stop-color="#4DA3FF" stop-opacity="0"/>
    </radialGradient>
    <radialGradient id="glow2" cx="50%" cy="50%" r="50%">
      <stop offset="0%" stop-color="#8FC7FF" stop-opacity="0.4"/>
      <stop offset="100%" stop-color="#8FC7FF" stop-opacity="0"/>
    </radialGradient>
    <filter id="blur1" x="-50%" y="-50%" width="200%" height="200%"><feGaussianBlur stdDeviation="60"/></filter>
    <filter id="blur2" x="-50%" y="-50%" width="200%" height="200%"><feGaussianBlur stdDeviation="90"/></filter>
  </defs>

  <rect width="1200" height="1600" fill="url(#bg)"/>
  <circle cx="900" cy="280" r="380" fill="url(#glow1)" filter="url(#blur1)"/>
  <circle cx="260" cy="1340" r="440" fill="url(#glow2)" filter="url(#blur2)"/>

  <!-- Floorsense Cloud -->
  <g transform="translate(500,168) scale(8)">
    <path d="M6,19 C3.79,19 2,17.21 2,15 C2,12.79 3.79,11 6,11 C6,7.13 9.13,4 13,4 C16.53,4 19.43,6.61 19.92,10.02 C21.72,10.15 23,11.68 23,13.5 C23,15.43 21.43,17 19.5,17 L6,19 Z"
      fill="#FFFFFF" opacity="0.07"/>
    <path d="M6,19 C3.79,19 2,17.21 2,15 C2,12.79 3.79,11 6,11 C6,7.13 9.13,4 13,4 C16.53,4 19.43,6.61 19.92,10.02 C21.72,10.15 23,11.68 23,13.5 C23,15.43 21.43,17 19.5,17 L6,19 Z"
      fill="none" stroke="#FFFFFF" stroke-width="0.32" opacity="0.55"/>
  </g>

  <line x1="600" y1="300" x2="600" y2="460" stroke="#FFFFFF" stroke-width="1.4" opacity="0.25"/>

  <!-- service tiers: API Gateway / Web Apps / Primary Controller -->
  <g transform="translate(300,460)">
    <rect x="0" y="0" width="600" height="70" rx="16" fill="#FFFFFF" opacity="0.08"/>
    <rect x="0" y="0" width="600" height="70" rx="16" fill="none" stroke="#FFFFFF" stroke-width="1.4" opacity="0.3"/>
    <circle cx="35" cy="35" r="14" fill="none" stroke="#FFFFFF" stroke-width="1.6" opacity="0.4"/>
    <line x1="70" y1="30" x2="260" y2="30" stroke="#FFFFFF" stroke-width="4" opacity="0.3"/>
    <line x1="70" y1="50" x2="200" y2="50" stroke="#FFFFFF" stroke-width="4" opacity="0.2"/>

    <rect x="0" y="94" width="600" height="70" rx="16" fill="#FFFFFF" opacity="0.06"/>
    <rect x="0" y="94" width="600" height="70" rx="16" fill="none" stroke="#FFFFFF" stroke-width="1.4" opacity="0.26"/>
    <circle cx="35" cy="129" r="14" fill="none" stroke="#FFFFFF" stroke-width="1.6" opacity="0.36"/>
    <line x1="70" y1="124" x2="280" y2="124" stroke="#FFFFFF" stroke-width="4" opacity="0.26"/>
    <line x1="70" y1="144" x2="210" y2="144" stroke="#FFFFFF" stroke-width="4" opacity="0.18"/>

    <rect x="0" y="188" width="600" height="70" rx="16" fill="#0071E3" opacity="0.5"/>
    <rect x="0" y="188" width="600" height="70" rx="16" fill="none" stroke="#FFFFFF" stroke-width="1.6" opacity="0.55"/>
    <circle cx="35" cy="223" r="14" fill="none" stroke="#FFFFFF" stroke-width="1.8" opacity="0.6"/>
    <line x1="70" y1="218" x2="300" y2="218" stroke="#FFFFFF" stroke-width="4" opacity="0.45"/>
    <line x1="70" y1="238" x2="230" y2="238" stroke="#FFFFFF" stroke-width="4" opacity="0.32"/>
  </g>

  <!-- dashed VPN tunnel -->
  <line x1="600" y1="718" x2="600" y2="806" stroke="#FFFFFF" stroke-width="1.4" stroke-dasharray="4 7" opacity="0.3"/>

  <!-- VPN / secure tunnel badge -->
  <circle cx="600" cy="850" r="42" fill="#FFFFFF" opacity="0.05"/>
  <circle cx="600" cy="850" r="42" fill="none" stroke="#FFFFFF" stroke-width="1.6" opacity="0.5"/>
  <path d="M588,850 v-9 a12,12 0 0,1 24,0 v9" fill="none" stroke="#FFFFFF" stroke-width="2.4" opacity="0.7" stroke-linecap="round"/>
  <rect x="584" y="848" width="32" height="24" rx="4" fill="none" stroke="#FFFFFF" stroke-width="2.2" opacity="0.7"/>

  <line x1="600" y1="892" x2="600" y2="984" stroke="#FFFFFF" stroke-width="1.4" stroke-dasharray="4 7" opacity="0.3"/>

  <!-- Customer Site building -->
  <rect x="520" y="1000" width="160" height="160" rx="12" fill="#FFFFFF" opacity="0.05"/>
  <rect x="520" y="1000" width="160" height="160" rx="12" fill="none" stroke="#FFFFFF" stroke-width="1.6" opacity="0.38"/>
  <g fill="none" stroke="#FFFFFF" stroke-width="1.4" opacity="0.32">
    <rect x="546" y="1028" width="30" height="30" rx="4"/>
    <rect x="600" y="1028" width="30" height="30" rx="4"/>
    <rect x="546" y="1082" width="30" height="30" rx="4"/>
    <rect x="600" y="1082" width="30" height="30" rx="4"/>
  </g>
  <rect x="580" y="1128" width="40" height="32" rx="3" fill="none" stroke="#FFFFFF" stroke-width="1.6" opacity="0.32"/>

  <line x1="560" y1="1160" x2="480" y2="1220" stroke="#FFFFFF" stroke-width="1.3" opacity="0.26"/>
  <line x1="640" y1="1160" x2="720" y2="1220" stroke="#FFFFFF" stroke-width="1.3" opacity="0.26"/>

  <!-- Locker badge -->
  <circle cx="480" cy="1256" r="38" fill="#FFFFFF" opacity="0.05"/>
  <circle cx="480" cy="1256" r="38" fill="none" stroke="#FFFFFF" stroke-width="1.6" opacity="0.45"/>
  <circle cx="480" cy="1249" r="6" fill="#FFFFFF" opacity="0.6"/>
  <rect x="477" y="1254" width="6" height="12" rx="2" fill="#FFFFFF" opacity="0.6"/>

  <!-- Desk Puck badge -->
  <circle cx="720" cy="1256" r="38" fill="#FFFFFF" opacity="0.05"/>
  <circle cx="720" cy="1256" r="38" fill="none" stroke="#FFFFFF" stroke-width="1.6" opacity="0.45"/>
  <g fill="none" stroke="#FFFFFF" stroke-width="2" opacity="0.6" stroke-linecap="round">
    <path d="M704,1248 a22.6,22.6 0 0,1 32,0"/>
    <path d="M710,1258 a14,14 0 0,1 20,0"/>
  </g>
  <circle cx="720" cy="1266" r="3.4" fill="#FFFFFF" opacity="0.65"/>

  <!-- accent dots -->
  <g fill="#FFFFFF" opacity="0.35">
    <circle cx="920" cy="495" r="4"/>
    <circle cx="920" cy="589" r="4"/>
    <circle cx="920" cy="683" r="4"/>
    <circle cx="600" cy="380" r="4"/>
  </g>

  <!-- spec tick -->
  <g stroke="#FFFFFF" stroke-width="1.4" opacity="0.28">
    <line x1="520" y1="1188" x2="680" y2="1188"/>
    <line x1="520" y1="1180" x2="520" y2="1196"/>
    <line x1="680" y1="1180" x2="680" y2="1196"/>
  </g>
</svg>
